<?xml version="1.0" encoding="utf-8"?>
<svg xmlns="http://www.w3.org/2000/svg" xmlns:xlink="http://www.w3.org/1999/xlink" viewBox="0 0 206.07 78"><defs><style>.cls-1{fill:none;}.cls-2{fill:#23608e;}.cls-3{clip-path:url(#clip-path);}.cls-4{fill:#0fa49d;}.cls-5{fill:#2d8b91;}.cls-6{fill:#192831;}.cls-7{fill:#47c3d2;}.cls-8{fill:#fff;}</style><clipPath id="clip-path" transform="translate(0 0)"><rect class="cls-1" width="206.07" height="78"/></clipPath></defs><title>Asset 49</title><g id="Layer_2" data-name="Layer 2"><g id="Layer_1-2" data-name="Layer 1"><polygon class="cls-2" points="27.82 18.87 15.59 15.59 18.87 27.82 24.54 24.54 27.82 18.87 27.82 18.87"/><polygon class="cls-2" points="58.55 27.82 61.82 15.59 49.6 18.87 52.88 24.54 58.55 27.82 58.55 27.82"/><polygon class="cls-2" points="58.55 49.6 53.95 52.25 50.14 58.69 61.82 61.82 58.55 49.6 58.55 49.6"/><g class="cls-3"><polygon class="cls-2" points="18.87 49.6 15.59 61.82 27.27 58.69 23.46 52.25 18.87 49.6 18.87 49.6"/><path class="cls-4" d="M21.69,49.26A20,20,0,0,1,20,45.55a20.59,20.59,0,0,1-1.15-6.79v0H0L23.46,52.25l-1.77-3Z" transform="translate(0 0)"/><path class="cls-5" d="M0,38.71H18.8A20.6,20.6,0,0,1,20,31.92a20.15,20.15,0,0,1,4.56-7.36v0L0,38.71Z" transform="translate(0 0)"/></g><path class="cls-4" d="M24.54,24.54h0a19.64,19.64,0,0,1,14.16-6V0L24.54,24.54Z" transform="translate(0 0)"/><path class="cls-5" d="M38.71,0V18.53a19.7,19.7,0,0,1,7.14,1.34,19.94,19.94,0,0,1,7,4.66h0L38.71,0Z" transform="translate(0 0)"/><path class="cls-4" d="M52.87,24.54l0,0a20.3,20.3,0,0,1,5.72,14.15h18.8L52.87,24.54Z" transform="translate(0 0)"/><path class="cls-5" d="M58.61,38.71v0a20.34,20.34,0,0,1-1.15,6.79,20,20,0,0,1-1.74,3.71l-1.77,3L77.41,38.71Z" transform="translate(0 0)"/><path class="cls-6" d="M92.28,30.1a6.33,6.33,0,1,0,12.66,0,6.33,6.33,0,1,0-12.66,0Zm16.83,0a10.49,10.49,0,0,1-21,0,10.49,10.49,0,0,1,21,0Z" transform="translate(0 0)"/><path class="cls-6" d="M120.08,23.78v4.9h4.4c2.16,0,3.29-.8,3.29-2.49s-1.18-2.41-3.29-2.41Zm4.47-3.66c4.76,0,7.31,2.25,7.31,6.07,0,3.28-2.28,5.52-6.11,5.89l6.14,8h-4.82l-5.82-7.94h-1.17v7.94h-4v-20Z" transform="translate(0 0)"/><polygon class="cls-6" points="142.33 40.08 138.35 40.08 138.35 20.12 142.33 20.12 142.33 40.08 142.33 40.08"/><path class="cls-6" d="M167,22.82l-2.87,2.8a6.23,6.23,0,0,0-4.82-2.09c-3.65,0-6.3,2.68-6.3,6.57,0,4.08,2.78,6.63,6.23,6.63,3.25,0,5.15-1.57,5.67-4.4h-5.07V29H169a11,11,0,0,1,.06,1.13c0,6.05-4.09,10.31-9.75,10.31s-10.44-3.89-10.44-10.34c0-6,4.4-10.35,10.54-10.35A10,10,0,0,1,167,22.82Z" transform="translate(0 0)"/><polygon class="cls-6" points="180.1 40.08 176.12 40.08 176.12 20.11 180.1 20.11 180.1 40.08 180.1 40.08"/><polygon class="cls-6" points="205.59 40.08 201.85 40.08 191.73 26.75 191.71 40.08 187.73 40.08 187.73 20.12 191.46 20.12 201.59 33.45 201.59 20.12 205.59 20.12 205.59 40.08 205.59 40.08"/><path class="cls-7" d="M55.72,49.26a20.32,20.32,0,0,0,2.89-10.5,19.91,19.91,0,1,0-39.81,0,20.42,20.42,0,0,0,2.89,10.5L38.71,78l17-28.74Z" transform="translate(0 0)"/><path class="cls-8" d="M38.71,31.46A7.25,7.25,0,1,0,46,38.71a7.26,7.26,0,0,0-7.25-7.25Zm0,21.13A13.88,13.88,0,1,1,52.59,38.71,13.89,13.89,0,0,1,38.71,52.59Z" transform="translate(0 0)"/><polygon class="cls-6" points="91.87 56.02 90.44 56.02 90.44 47.14 91.87 47.14 91.87 56.02 91.87 56.02"/><polygon class="cls-6" points="104.51 56.02 103.22 56.02 98.26 49.6 98.25 56.02 96.82 56.02 96.82 47.14 98.11 47.14 103.08 53.57 103.08 47.14 104.51 47.14 104.51 56.02 104.51 56.02"/><polygon class="cls-6" points="113.26 56.02 111.47 56.02 108.09 47.14 109.62 47.14 112.38 54.57 115.17 47.14 116.65 47.14 113.26 56.02 113.26 56.02"/><polygon class="cls-6" points="126.71 56.02 120.23 56.02 120.23 47.14 126.62 47.14 126.62 48.48 121.66 48.48 121.66 50.88 126.45 50.88 126.45 52.22 121.66 52.22 121.66 54.68 126.71 54.68 126.71 56.02 126.71 56.02"/><path class="cls-6" d="M137.23,49.11a5.15,5.15,0,0,0-1.19-.56,4.06,4.06,0,0,0-1.3-.2,3.35,3.35,0,0,0-.81.09,2.2,2.2,0,0,0-.64.26,1.33,1.33,0,0,0-.4.42,1.06,1.06,0,0,0-.15.55.82.82,0,0,0,.13.48,1,1,0,0,0,.36.33,2.42,2.42,0,0,0,.58.23,6.78,6.78,0,0,0,.78.15l.61.08a6.15,6.15,0,0,1,1.05.24,3,3,0,0,1,.92.44,2.14,2.14,0,0,1,.65.72,2.08,2.08,0,0,1,.24,1,2.42,2.42,0,0,1-.28,1.2,2.63,2.63,0,0,1-.78.88,3.38,3.38,0,0,1-1.13.54,5,5,0,0,1-1.37.18,6,6,0,0,1-.93-.07,7.47,7.47,0,0,1-1-.23,5.15,5.15,0,0,1-.9-.37,3.92,3.92,0,0,1-.78-.52l.78-1.14a2.54,2.54,0,0,0,.55.38,3.62,3.62,0,0,0,.69.31,4.73,4.73,0,0,0,.76.21,4.29,4.29,0,0,0,.79.07,3.47,3.47,0,0,0,.81-.09,2.16,2.16,0,0,0,.66-.25,1.48,1.48,0,0,0,.44-.42,1,1,0,0,0,.16-.55.85.85,0,0,0-.51-.79,4.66,4.66,0,0,0-1.49-.41l-.69-.09a6.51,6.51,0,0,1-1-.23,3.08,3.08,0,0,1-.84-.45,2.11,2.11,0,0,1-.6-.72,2.28,2.28,0,0,1-.22-1.06,2.5,2.5,0,0,1,.27-1.18,2.55,2.55,0,0,1,.76-.87,3.19,3.19,0,0,1,1.11-.54,5,5,0,0,1,1.36-.18,5.71,5.71,0,0,1,1.76.25A6.3,6.3,0,0,1,138,48l-.73,1.16Z" transform="translate(0 0)"/><polygon class="cls-6" points="148.39 48.5 145.51 48.5 145.51 56.02 144.08 56.02 144.08 48.5 141.21 48.5 141.21 47.14 148.39 47.14 148.39 48.5 148.39 48.5"/><polygon class="cls-6" points="161.58 56.02 160.15 56.02 160.15 48.71 157.56 55.15 156.04 55.15 153.45 48.78 153.45 56.02 152.01 56.02 152.01 47.14 154.22 47.14 156.8 53.48 159.38 47.14 161.58 47.14 161.58 56.02 161.58 56.02"/><polygon class="cls-6" points="173.01 56.02 166.53 56.02 166.53 47.14 172.93 47.14 172.93 48.48 167.97 48.48 167.97 50.88 172.76 50.88 172.76 52.22 167.97 52.22 167.97 54.68 173.01 54.68 173.01 56.02 173.01 56.02"/><polygon class="cls-6" points="185.41 56.02 184.11 56.02 179.16 49.6 179.15 56.02 177.72 56.02 177.72 47.14 179.01 47.14 183.97 53.57 183.97 47.14 185.41 47.14 185.41 56.02 185.41 56.02"/><polygon class="cls-6" points="196.22 48.5 193.34 48.5 193.34 56.02 191.91 56.02 191.91 48.5 189.03 48.5 189.03 47.14 196.22 47.14 196.22 48.5 196.22 48.5"/><path class="cls-6" d="M205.24,49.11a5.15,5.15,0,0,0-1.19-.56,4.06,4.06,0,0,0-1.3-.2,3.49,3.49,0,0,0-.82.09,2.25,2.25,0,0,0-.63.26,1.49,1.49,0,0,0-.41.42,1.15,1.15,0,0,0-.14.55.82.82,0,0,0,.13.48,1,1,0,0,0,.36.33,2.42,2.42,0,0,0,.58.23,7,7,0,0,0,.77.15l.62.08a6.15,6.15,0,0,1,1,.24,3,3,0,0,1,.92.44,2.25,2.25,0,0,1,.65.72,2.08,2.08,0,0,1,.24,1,2.42,2.42,0,0,1-.28,1.2,2.63,2.63,0,0,1-.78.88,3.38,3.38,0,0,1-1.13.54,5.09,5.09,0,0,1-1.37.18,6,6,0,0,1-.93-.07,7.47,7.47,0,0,1-1-.23,5.59,5.59,0,0,1-.91-.37,4.16,4.16,0,0,1-.77-.52l.78-1.14a2.54,2.54,0,0,0,.55.38,3.62,3.62,0,0,0,.69.31,4.73,4.73,0,0,0,.76.21,4.29,4.29,0,0,0,.79.07,3.47,3.47,0,0,0,.81-.09,2.16,2.16,0,0,0,.66-.25,1.61,1.61,0,0,0,.44-.42,1,1,0,0,0,.16-.55.85.85,0,0,0-.51-.79,4.66,4.66,0,0,0-1.49-.41l-.69-.09a6.51,6.51,0,0,1-1-.23,3.08,3.08,0,0,1-.84-.45,2.11,2.11,0,0,1-.6-.72,2.28,2.28,0,0,1-.22-1.06,2.5,2.5,0,0,1,.27-1.18,2.55,2.55,0,0,1,.76-.87,3.19,3.19,0,0,1,1.11-.54,5,5,0,0,1,1.36-.18,5.6,5.6,0,0,1,1.75.25A6.17,6.17,0,0,1,206,48l-.73,1.16Z" transform="translate(0 0)"/><polygon class="cls-2" points="27.82 18.87 15.59 15.59 18.87 27.82 24.54 24.54 27.82 18.87 27.82 18.87"/><polygon class="cls-2" points="58.55 27.82 61.82 15.59 49.6 18.87 52.88 24.54 58.55 27.82 58.55 27.82"/><polygon class="cls-2" points="58.55 49.6 53.95 52.25 50.14 58.69 61.82 61.82 58.55 49.6 58.55 49.6"/><g class="cls-3"><polygon class="cls-2" points="18.87 49.6 15.59 61.82 27.27 58.69 23.46 52.25 18.87 49.6 18.87 49.6"/><path class="cls-4" d="M21.69,49.26A20,20,0,0,1,20,45.55a20.59,20.59,0,0,1-1.15-6.79v0H0L23.46,52.25l-1.77-3Z" transform="translate(0 0)"/><path class="cls-5" d="M0,38.71H18.8A20.6,20.6,0,0,1,20,31.92a20.15,20.15,0,0,1,4.56-7.36v0L0,38.71Z" transform="translate(0 0)"/></g><path class="cls-4" d="M24.54,24.54h0a19.64,19.64,0,0,1,14.16-6V0L24.54,24.54Z" transform="translate(0 0)"/><path class="cls-5" d="M38.71,0V18.53a19.7,19.7,0,0,1,7.14,1.34,19.94,19.94,0,0,1,7,4.66h0L38.71,0Z" transform="translate(0 0)"/><path class="cls-4" d="M52.87,24.54l0,0a20.3,20.3,0,0,1,5.72,14.15h18.8L52.87,24.54Z" transform="translate(0 0)"/><path class="cls-5" d="M58.61,38.71v0a20.34,20.34,0,0,1-1.15,6.79,20,20,0,0,1-1.74,3.71l-1.77,3L77.41,38.71Z" transform="translate(0 0)"/><path class="cls-7" d="M55.72,49.26a20.32,20.32,0,0,0,2.89-10.5,19.91,19.91,0,1,0-39.81,0,20.42,20.42,0,0,0,2.89,10.5L38.71,78l17-28.74Z" transform="translate(0 0)"/><path class="cls-8" d="M38.71,31.46A7.25,7.25,0,1,0,46,38.71a7.26,7.26,0,0,0-7.25-7.25Zm0,21.13A13.88,13.88,0,1,1,52.59,38.71,13.89,13.89,0,0,1,38.71,52.59Z" transform="translate(0 0)"/></g></g></svg>
